<?xml version="1.0" encoding="UTF-8"?>
<svg xmlns="http://www.w3.org/2000/svg" xmlns:xlink="http://www.w3.org/1999/xlink" xmlns:xodm="http://www.corel.com/coreldraw/odm/2003" xml:space="preserve" width="39.63mm" height="39.63mm" version="1.1" style="shape-rendering:geometricPrecision; text-rendering:geometricPrecision; image-rendering:optimizeQuality; fill-rule:evenodd; clip-rule:evenodd" viewBox="0 0 2783.43 2783.43">
 <defs>
  <style type="text/css">
   
    .fil0 {fill:none}
    .fil1 {fill:white}
   
  </style>
 </defs>
 <g id="Layer_x0020_1">
  <metadata id="CorelCorpID_0Corel-Layer"></metadata>
  <rect class="fil0" width="2783.43" height="2783.43"></rect>
  <path class="fil1" d="M765.85 1193.14c-16.84,63.35 -25.81,129.92 -25.81,198.58 0,46.48 4.12,92.01 12,136.23 10.48,58.82 27.63,115.33 50.64,168.71 53.69,124.6 139.3,232.23 246.51,312.58 73.19,54.85 156.46,97 246.52,123.16 25.9,7.52 52.37,13.72 79.31,18.53 44.22,7.88 89.75,12 136.23,12 10.37,0 20.7,-0.2 30.97,-0.61l0 -192.8 0 -46.53c-10.25,0.59 -20.58,0.88 -30.97,0.88 -4.97,0 -9.93,-0.07 -14.88,-0.2 -71.27,-1.96 -139.04,-17.92 -200.66,-45.26 -103.95,-46.1 -190.37,-124.53 -246.52,-222.53 -42.29,-73.81 -67.4,-158.72 -69.88,-249.28 -0.13,-4.94 -0.2,-9.9 -0.2,-14.88 0,-217.17 130.1,-403.96 316.61,-486.68 65.89,-29.22 138.82,-45.46 215.54,-45.46 10.39,0 20.73,0.29 30.97,0.88l0 -239.33c-10.28,-0.41 -20.6,-0.61 -30.97,-0.61 -74.81,0 -147.14,10.65 -215.54,30.52 -258.26,75.03 -460.6,281.45 -529.86,542.1zm529.86 -167.4l0 348.62 246.51 246.51 233 233.01c4.55,-2.61 9.05,-5.27 13.52,-8.01 66.54,-40.74 123.43,-95.7 166.46,-160.64 50.19,-75.77 81.51,-165.13 87.24,-261.38 0.63,-10.63 0.96,-21.34 0.96,-32.13 0,-192.21 -101.91,-360.63 -254.65,-454.16l0 232.59 0 348.62 -246.52 -246.52 -246.51 -246.51z"></path>
 </g>
</svg>
